<svg width="20" height="18" viewBox="0 0 20 18" fill="none" xmlns="http://www.w3.org/2000/svg">
<path d="M7.48607 11.6291L10.7487 12.6183C10.7446 12.6391 10.7363 12.664 10.7279 12.6848C10.6407 12.9217 10.4619 13.0547 10.171 13.1004C9.0987 13.2708 7.31982 13.1628 7.3032 13.1628C7.02888 13.1462 6.79198 13.354 6.77535 13.6283C6.75873 13.9026 6.96654 14.1395 7.24085 14.1561C7.31982 14.1603 9.14442 14.2725 10.3289 14.0813C11.5052 13.8943 11.8418 12.8594 11.7795 12.2068C11.7587 12.0032 11.6215 11.8328 11.4262 11.7746L7.77285 10.669C5.96904 10.1246 3.99066 11.1304 3.90754 11.1719C3.89922 11.1761 3.88675 11.1802 3.87844 11.1886L0.241718 13.3872C0.00481159 13.5285 -0.070001 13.8361 0.0713117 14.073C0.166906 14.2268 0.328999 14.3141 0.499406 14.3141C0.586687 14.3141 0.673969 14.2891 0.757094 14.2434L4.37719 12.0614C4.53513 11.9782 6.12698 11.2177 7.48607 11.6291Z" fill="#FF9515"/>
<path d="M19.9387 10.7941C19.6519 10.2704 18.7583 9.43503 17.4034 10.0335C16.1232 10.6029 13.4175 11.9038 13.3884 11.9163C13.139 12.0368 13.0351 12.3319 13.1557 12.5813C13.2762 12.8307 13.5754 12.9346 13.8207 12.8141C13.8498 12.8016 16.5389 11.5048 17.8065 10.9438C18.1681 10.7817 18.4715 10.7817 18.7334 10.9438C18.7417 10.9479 18.7458 10.9521 18.7541 10.9562L11.9753 15.9229C11.4932 16.2762 10.8822 16.4217 10.2962 16.3303L4.24881 15.366C4.1075 15.3452 3.96203 15.3826 3.84981 15.4741L2.32031 16.75C2.10834 16.9246 2.07924 17.2405 2.25796 17.4524C2.35771 17.5688 2.49903 17.6312 2.64034 17.6312C2.75256 17.6312 2.86478 17.5938 2.96037 17.5148L4.31531 16.3843L10.1424 17.3153C10.9903 17.4524 11.8755 17.2363 12.5696 16.7293L19.8015 11.4342C19.9969 11.2846 20.0592 11.0144 19.9387 10.7941Z" fill="#FF9515"/>
<path d="M10.6984 10.2199C11.4756 10.2199 12.2029 9.91646 12.7557 9.36784C13.8904 8.23318 13.8904 6.39196 12.7557 5.25731C12.2071 4.70868 11.4756 4.40527 10.6984 4.40527C9.92116 4.40527 9.19381 4.70868 8.64103 5.25731C7.50637 6.39196 7.50637 8.23318 8.64103 9.36784C9.19381 9.91646 9.92116 10.2199 10.6984 10.2199ZM9.3476 5.96387C9.70919 5.60227 10.1872 5.40277 10.6984 5.40277C11.2096 5.40277 11.6876 5.60227 12.0492 5.96387C12.7931 6.70784 12.7931 7.92146 12.0492 8.66543C11.6876 9.02703 11.2096 9.22653 10.6984 9.22653C10.1872 9.22653 9.70919 9.02703 9.3476 8.66543C8.60363 7.92146 8.60363 6.70784 9.3476 5.96387Z" fill="#FF9515"/>
<path d="M14.1111 4.53863C14.7179 4.53863 15.2873 4.30172 15.7154 3.87363C16.6007 2.98835 16.6007 1.55028 15.7154 0.665001C15.2873 0.236907 14.7179 0 14.1111 0C13.5042 0 12.9348 0.236907 12.5067 0.665001C11.6215 1.55028 11.6215 2.98835 12.5067 3.87363C12.9348 4.30588 13.5084 4.53863 14.1111 4.53863ZM13.2133 1.37156C13.4544 1.1305 13.7744 0.997501 14.1152 0.997501C14.456 0.997501 14.7761 1.1305 15.0171 1.37156C15.5117 1.86616 15.5117 2.67663 15.0171 3.17122C14.7761 3.41229 14.456 3.54529 14.1152 3.54529C13.7744 3.54529 13.4544 3.41229 13.2133 3.17122C12.7187 2.67247 12.7187 1.86616 13.2133 1.37156Z" fill="#FF9515"/>
</svg>
