<svg width="19" height="20" viewBox="0 0 19 20" fill="none" xmlns="http://www.w3.org/2000/svg">
<path d="M18.582 4.41297L9.50118 0.0291212C9.42067 -0.00970708 9.32692 -0.00970708 9.24645 0.0291212L0.165587 4.41297C0.0643363 4.46184 0 4.56438 0 4.6768V15.3233C0 15.4357 0.0643363 15.5383 0.165587 15.5871L9.24641 19.971C9.28664 19.9904 9.33024 20.0001 9.37379 20.0001C9.41735 20.0001 9.4609 19.9904 9.50118 19.971L18.582 15.5871C18.6833 15.5383 18.7476 15.4357 18.7476 15.3233V4.67684C18.7476 4.56434 18.6832 4.46188 18.582 4.41297ZM9.37379 0.618304L17.7807 4.6768L15.3437 5.85329C15.3283 5.84153 15.312 5.83067 15.2941 5.82204L6.94429 1.79116L9.37379 0.618304ZM6.28265 2.12241L14.6774 6.17501L12.958 7.00505L4.56678 2.9541L6.28265 2.12241ZM14.8738 6.73079V9.79901L13.2678 10.5743V7.50611L14.8738 6.73079ZM18.1616 15.1395L9.66676 19.2403V9.24452L11.6931 8.26631C11.8388 8.19596 11.8999 8.02084 11.8295 7.8751C11.7592 7.72943 11.584 7.66826 11.4383 7.73865L9.37379 8.73533L8.56145 8.34315C8.4157 8.27272 8.24059 8.33389 8.17023 8.47959C8.09988 8.6253 8.16098 8.80045 8.30668 8.8708L9.08082 9.24452V19.2403L0.58594 15.1394V5.14356L7.05472 8.26643C7.09578 8.28627 7.13917 8.29565 7.18187 8.29565C7.29078 8.29565 7.39539 8.23463 7.44589 8.12998C7.51625 7.98428 7.45515 7.80912 7.30945 7.73877L0.966841 4.6768L3.87721 3.27179L12.6778 7.52037C12.6791 7.52217 12.6805 7.52377 12.6819 7.52552V11.0411C12.6819 11.1419 12.7337 11.2357 12.8191 11.2893C12.8665 11.3191 12.9206 11.3341 12.9749 11.3341C13.0183 11.3341 13.0619 11.3244 13.1022 11.305L15.2941 10.2468C15.3954 10.1979 15.4597 10.0954 15.4597 9.98296V6.44798L18.1616 5.1436V15.1395V15.1395Z" fill="#FF9515"/>
</svg>
