<svg width="19" height="19" viewBox="0 0 19 19" fill="none" xmlns="http://www.w3.org/2000/svg">
<path d="M18.7463 12.5127L16.6618 10.7258H14.4032V10.0826C14.4759 10.1003 14.55 10.1129 14.6257 10.1129H14.6965C15.2107 10.1129 15.629 9.6946 15.629 9.18037C15.629 8.90273 15.5068 8.64132 15.2935 8.46389L10.2379 4.2514C10.112 4.14598 9.96305 4.07703 9.80645 4.03597V2.75806H13.4839V0H9.19355V4.03566C9.03695 4.07673 8.88771 4.14568 8.76176 4.2511L3.70684 8.46389C3.49324 8.64132 3.37097 8.90273 3.37097 9.18037C3.37097 9.6946 3.78927 10.1129 4.3035 10.1129H4.37429C4.44998 10.1129 4.52415 10.1006 4.59677 10.0826V10.7258H2.33823L0.253435 12.5127C0.0925484 12.6509 0 12.852 0 13.064C0 13.4646 0.325758 13.7903 0.72629 13.7903H0.919355V19H4.59677H4.90323H7.66129H11.3387H14.0968H14.4032H18.0806V13.7903H18.2737C18.6742 13.7903 19 13.4646 19 13.064C19 12.852 18.9075 12.6509 18.7463 12.5127ZM9.80645 0.612903H12.871V2.14516H9.80645V0.612903ZM4.59677 18.3871H1.53226V13.7903H3.98387V13.1774H0.72629C0.663774 13.1774 0.612903 13.1265 0.612903 13.064C0.612903 13.0312 0.627306 12.9997 0.652435 12.9779L2.565 11.3387H4.59677V18.3871ZM9.19355 18.3871H8.27419V16.2419H9.19355V18.3871ZM10.7258 18.3871H9.80645V16.2419H10.7258V18.3871ZM13.7903 18.3871H11.3387V15.629H7.66129V18.3871H5.20968V9.70348L9.5 6.21729L13.7903 9.70379V18.3871ZM9.5 5.42787L4.57563 9.4289C4.51924 9.47456 4.44784 9.5 4.37429 9.5H4.3035C4.12729 9.5 3.98387 9.35658 3.98387 9.18037C3.98387 9.08506 4.02586 8.99558 4.0991 8.9349L9.15432 4.72181C9.34769 4.56092 9.652 4.56061 9.84537 4.72211L14.9012 8.9349C14.9741 8.99558 15.0161 9.08506 15.0161 9.18037C15.0161 9.35658 14.8727 9.5 14.6965 9.5H14.6257C14.5525 9.5 14.4805 9.47456 14.4241 9.4286L9.5 5.42787ZM18.2737 13.1774H15.0161V13.7903H17.4677V18.3871H14.4032V11.3387H16.435L18.3473 12.9779C18.3727 12.9997 18.3871 13.0309 18.3871 13.064C18.3871 13.1265 18.3362 13.1774 18.2737 13.1774Z" fill="#FF9515"/>
</svg>
