<svg width="18" height="21" viewBox="0 0 18 21" fill="none" xmlns="http://www.w3.org/2000/svg">
<path d="M14.5783 3.76255L12.144 6.19683C11.2589 7.43613 9.70977 7.59838 9.04587 7.52459C7.80662 7.52459 6.75911 6.93445 6.39026 6.63937L3.956 4.20512C2.84954 3.09866 2.18562 2.65603 1.30042 3.54122C0.59227 4.24938 1.30042 5.16408 1.74302 5.53291C1.81679 5.68044 2.36266 6.32958 3.956 7.74589C5.54935 9.1622 5.65262 11.2867 5.50509 12.1719V19.0321C5.57886 19.4009 5.94769 20.1386 6.83288 20.1386C7.71808 20.1386 7.93937 19.4009 7.93937 19.0321V15.9339C7.93937 15.27 8.16067 14.3848 9.04587 14.3848C9.75402 14.3848 9.93106 15.27 9.93106 15.7126V19.0321C10.0048 19.4009 10.3737 20.1386 11.2588 20.1386C12.144 20.1386 12.3653 19.2534 12.3653 18.8108V12.3932C12.3653 10.0917 13.2505 8.63109 13.6931 8.18849L16.3487 5.53291C17.4109 4.47068 16.9388 3.61501 16.57 3.31996C15.8619 2.6118 14.9472 3.31996 14.5783 3.76255Z" stroke="#FF9515" stroke-width="0.6"/>
<circle cx="9.04604" cy="3.31947" r="3.01947" stroke="#FF9515" stroke-width="0.6"/>
</svg>
